# xmcd CD database file
#
# Track frame offsets:
#	150
#	14140
#	28108
#	44070
#	61212
#	65118
#	79256
#	98600
#	118830
#	134666
#	150682
#	170796
#	191078
#	224632
#
# Disc length: 3209 seconds
#
# Revision: 0
# Processed by: cddbd v1.5.2PL0 Copyright (c) Steve Scherf et al.
# Submitted via: CDex 1.70beta2
#
DISCID=df0c870e
DTITLE=Alabama 3 - Shoplifting 4 Jesus
DYEAR=2011
DGENRE=Country
TTITLE0=Have You Been Having A Nightmare?
TTITLE1=I Blame Kurt Cobain
TTITLE2=We Stole The Moon
TTITLE3=It's About That Time
TTITLE4=Star Intro
TTITLE5=I've Been Seeing Stars (Ain't Seen The Light)
TTITLE6=Wrong Is Right
TTITLE7=Saved
TTITLE8=Facebook.con
TTITLE9=Black Dog
TTITLE10=Summer In The City
TTITLE11=Who The Fuck Is John Sinclair?
TTITLE12=Let's Go Out 2Nite
TTITLE13=Abide With Me
EXTD=YEAR: 2011
EXTT0=
EXTT1=
EXTT2=
EXTT3=
EXTT4=
EXTT5=
EXTT6=
EXTT7=
EXTT8=
EXTT9=
EXTT10=
EXTT11=
EXTT12=
EXTT13=
PLAYORDER=
